<svg xmlns="http://www.w3.org/2000/svg" viewBox="0 0 1601.6 1603.53" xmlns:v="https://vecta.io/nano"><circle cx="800.77" cy="802.75" r="62.81" fill="#aaaaa9"/><path d="M1570.32 733.05a138.46 138.46 0 0 0-108.4-50.8h0a138.15 138.15 0 0 0-107.48 52.67c-38.57-127.76-157.74-220.29-297.94-219.08a307.45 307.45 0 0 0-221.58 96.73l-23.08-22.68a43.42 43.42 0 0 0-60.87 61.94h0l34.68 34.09h112a212.27 212.27 0 0 1 159.73-74.37c117.45-1 213.49 93.36 214.52 210.81.82 89.6-54 166.75-132.1 198.75l-9.93 103.38c109.13-25.61 195.81-109.16 226.13-216.14a138.45 138.45 0 0 0 214.35-175.3z" fill="#0658a5"/><path d="M1094.47 1058.46a307.45 307.45 0 0 0-96.73-221.59l22.68-23.08a43.41 43.41 0 0 0-.54-61.4h0a43.41 43.41 0 0 0-61.39.53h0l-40.85 41.57v99.56a212.27 212.27 0 0 1 81.15 165.24c1 117.45-93.37 213.5-210.81 214.52-89.62.82-166.75-54-198.75-132.1l-103.38-9.93A309 309 0 0 0 702 1357.91a138.45 138.45 0 1 0 226.1 106h0a138.15 138.15 0 0 0-52.67-107.48c127.73-38.61 220.26-157.77 219.04-297.97z" fill="#f7a827"/><path d="M816.27 919.61H703.65a212.26 212.26 0 0 1-159.43 74c-117.45 1-213.49-93.36-214.52-210.81a212.74 212.74 0 0 1 132.15-198.71l9.94-103.39a308.87 308.87 0 0 0-226.17 216.11 138.45 138.45 0 1 0-106 226.1h0a138.24 138.24 0 0 0 107.49-52.67c38.6 127.76 157.77 220.28 297.97 219.07a307.49 307.49 0 0 0 221.59-96.73l23.05 22.7a43.43 43.43 0 0 0 61.41-.53h0a43.43 43.43 0 0 0-.53-61.41z" fill="#d20a00"/><path d="M904.08 245.59a138.47 138.47 0 1 0-173.46 1.52C602.85 285.67 510.32 404.84 511.54 545a307.5 307.5 0 0 0 96.74 221.59l-22.68 23.12a43.42 43.42 0 0 0 .53 61.4h0a43.43 43.43 0 0 0 61.41-.53l36.36-37v-107.8a212.24 212.24 0 0 1-76.65-161.59c-1-117.46 93.35-213.49 210.81-214.52a212.74 212.74 0 0 1 198.74 132.14l103.38 9.93c-25.57-109.18-109.13-195.86-216.1-226.15z" fill="#009600"/><circle cx="327.44" cy="329.43" r="134.69" fill="#f7a827"/><circle cx="1274.09" cy="329.43" r="134.69" fill="#d20a00"/><circle cx="1274.09" cy="1274.07" r="134.69" fill="#009600"/><circle cx="327.44" cy="1276.07" r="134.69" fill="#0658a5"/></svg>