<?xml version="1.0" standalone="no"?>
<!DOCTYPE svg PUBLIC "-//W3C//DTD SVG 20010904//EN"
 "http://www.w3.org/TR/2001/REC-SVG-20010904/DTD/svg10.dtd">
<svg version="1.0" xmlns="http://www.w3.org/2000/svg"
 width="1604.000000pt" height="1604.000000pt" viewBox="0 0 1604.000000 1604.000000"
 preserveAspectRatio="xMidYMid meet">
<metadata>
Created by potrace 1.14, written by Peter Selinger 2001-2017
</metadata>
<g transform="translate(0.000000,1604.000000) scale(0.100000,-0.100000)"
fill="#000000" stroke="none">
<path d="M8039 16036 c-2 -2 -30 -7 -62 -10 -32 -4 -64 -9 -70 -11 -7 -3 -23
-6 -37 -9 -71 -12 -231 -70 -325 -118 -400 -205 -682 -605 -743 -1053 -9 -67
-9 -298 1 -360 18 -125 39 -204 83 -320 73 -188 169 -333 325 -489 55 -54 98
-100 97 -101 -2 -1 -52 -18 -113 -39 -60 -20 -123 -43 -140 -50 -16 -8 -64
-28 -105 -46 -105 -46 -264 -131 -382 -204 -69 -44 -244 -167 -275 -194 -10
-9 -48 -41 -83 -71 -111 -93 -312 -301 -411 -426 -294 -371 -513 -829 -600
-1257 -6 -29 -15 -73 -20 -98 -20 -97 -32 -187 -44 -340 -6 -72 -7 -382 -1
-445 9 -105 19 -192 22 -210 2 -10 6 -37 9 -60 9 -57 45 -234 55 -270 62 -208
89 -287 128 -384 74 -187 165 -364 270 -526 42 -65 170 -244 182 -255 3 -3 30
-34 60 -70 30 -36 57 -67 60 -70 3 -3 43 -45 89 -92 l85 -87 -136 -139 c-84
-86 -146 -158 -161 -189 -114 -224 -31 -486 185 -592 141 -69 300 -62 429 20
25 16 134 119 242 229 l197 201 0 544 c0 300 -4 545 -9 545 -16 0 -218 207
-292 300 -211 265 -368 600 -422 900 -32 176 -40 249 -41 410 -2 144 18 355
39 430 2 8 7 30 10 47 9 57 75 265 112 353 235 571 726 1022 1313 1209 108 34
198 58 254 67 21 3 47 7 58 9 20 4 81 12 163 20 139 14 376 4 535 -24 105 -19
125 -23 229 -53 93 -26 132 -40 236 -81 75 -30 263 -131 343 -183 328 -219
580 -506 748 -853 19 -40 39 -84 44 -97 6 -15 18 -24 32 -25 13 -1 32 -3 43
-4 11 -1 54 -5 95 -9 41 -4 93 -9 115 -11 22 -2 69 -7 105 -10 36 -3 79 -8 95
-10 17 -3 62 -7 100 -10 39 -3 86 -8 105 -10 19 -2 67 -7 105 -10 64 -5 126
-11 213 -20 l34 -4 -7 37 c-4 19 -25 95 -47 166 -244 797 -808 1464 -1563
1848 -83 42 -236 110 -280 124 -61 20 -251 87 -254 90 -3 2 6 12 19 21 90 63
257 276 329 420 43 85 106 255 117 316 3 18 12 66 19 107 13 75 14 352 1 415
-42 201 -69 283 -137 418 -165 328 -458 577 -812 691 -126 41 -232 58 -398 62
-85 3 -157 3 -160 0z"/>
<path d="M3070 14075 c-169 -27 -338 -91 -500 -188 -19 -12 -37 -23 -40 -27
-3 -3 -25 -19 -50 -35 -25 -17 -90 -75 -145 -130 -334 -333 -467 -799 -359
-1265 77 -337 309 -653 614 -838 448 -272 1007 -257 1447 37 292 196 493 497
570 854 25 115 25 409 0 524 -58 270 -180 497 -372 688 -133 134 -268 224
-460 306 -28 12 -145 48 -175 54 -14 3 -36 7 -50 10 -14 3 -36 8 -50 11 -53
13 -345 12 -430 -1z"/>
<path d="M12620 14087 c-3 -2 -30 -7 -60 -10 -173 -19 -396 -106 -564 -220
-188 -128 -350 -315 -449 -519 -54 -111 -100 -245 -112 -322 -3 -21 -7 -41 -9
-45 -14 -23 -23 -301 -12 -371 2 -14 7 -45 11 -70 10 -69 51 -218 79 -288 159
-399 540 -724 946 -808 14 -3 41 -9 60 -14 19 -4 67 -11 105 -15 502 -49 981
177 1262 595 83 124 162 312 195 464 18 82 22 134 22 281 0 115 -4 200 -12
235 -8 30 -16 66 -18 80 -12 59 -60 192 -101 275 -135 273 -358 495 -625 623
-75 36 -184 78 -228 87 -8 2 -49 11 -90 20 -70 16 -389 33 -400 22z"/>
<path d="M4675 11218 c-89 -22 -276 -82 -370 -120 -399 -158 -742 -384 -1050
-693 -353 -352 -603 -759 -755 -1230 l-33 -100 -101 101 c-110 109 -237 199
-369 263 -88 43 -239 96 -297 105 -19 3 -46 8 -60 11 -57 13 -153 19 -275 18
-352 -3 -686 -144 -941 -398 -116 -115 -200 -230 -266 -365 -43 -86 -95 -226
-113 -305 -57 -246 -34 -586 54 -800 5 -11 17 -40 27 -65 68 -166 215 -363
375 -505 56 -49 212 -150 292 -188 81 -39 230 -92 287 -102 19 -4 69 -13 110
-20 80 -15 340 -17 400 -4 19 4 51 10 70 13 110 17 294 86 415 154 133 75 330
239 382 319 17 26 33 30 33 8 0 -27 102 -288 160 -412 173 -364 437 -715 732
-974 40 -35 75 -66 78 -69 12 -13 180 -140 240 -181 157 -108 346 -212 525
-288 87 -38 337 -126 384 -136 9 -2 63 -15 121 -29 58 -14 150 -32 205 -40 55
-8 116 -18 135 -21 120 -18 403 -24 585 -12 101 6 321 33 333 41 4 2 27 7 52
10 25 4 88 18 140 31 52 14 105 27 116 30 51 12 261 88 366 133 101 44 223
104 317 158 42 24 267 171 290 189 9 8 59 48 111 90 52 42 139 119 192 171 53
52 102 94 108 94 6 0 66 -54 133 -120 144 -141 173 -163 246 -191 70 -27 195
-33 270 -13 144 38 266 164 306 314 12 45 12 162 1 210 -3 14 -20 54 -38 90
-26 54 -63 96 -227 257 -188 186 -196 193 -235 194 -23 0 -275 0 -562 1 l-520
0 -115 -114 c-62 -63 -153 -144 -201 -181 -74 -57 -114 -84 -244 -164 -26 -16
-189 -97 -239 -118 -121 -52 -351 -119 -450 -131 -22 -3 -46 -7 -54 -10 -53
-17 -405 -25 -536 -11 -244 25 -503 100 -725 211 -307 153 -580 384 -787 668
-194 266 -343 652 -381 988 -9 87 -9 429 1 510 86 704 530 1326 1173 1646 88
43 134 72 135 83 0 9 2 23 4 33 2 9 6 55 10 103 3 47 8 96 10 108 2 12 6 54
10 92 3 39 8 88 10 110 2 22 7 72 10 110 4 39 8 86 10 105 13 122 15 151 20
205 3 33 8 79 10 103 3 23 2 42 -2 41 -4 -1 -26 -6 -48 -11z"/>
<path d="M10335 10869 c-199 -21 -197 -21 -362 -55 -140 -28 -309 -77 -433
-124 -47 -18 -103 -39 -125 -47 -61 -22 -300 -143 -390 -198 -222 -133 -394
-267 -576 -446 l-88 -86 -113 111 c-156 154 -196 184 -280 213 -227 80 -471
-39 -554 -270 -37 -102 -21 -259 39 -359 13 -22 111 -128 218 -234 l194 -194
560 0 561 0 82 85 c70 72 149 143 241 218 196 159 536 320 806 383 99 23 138
30 221 39 33 3 75 8 94 11 41 6 288 5 345 -1 22 -2 67 -7 100 -10 64 -6 219
-37 288 -57 23 -6 47 -12 53 -14 19 -3 137 -45 174 -61 100 -43 217 -99 231
-110 8 -7 19 -13 23 -13 21 0 282 -181 351 -245 252 -231 399 -425 529 -695
48 -100 136 -340 150 -411 10 -52 35 -198 44 -259 12 -80 13 -405 2 -480 -28
-185 -37 -227 -71 -350 -142 -498 -468 -934 -909 -1214 -63 -40 -278 -153
-317 -167 -6 -2 -14 -33 -18 -69 -3 -36 -8 -76 -10 -90 -2 -14 -6 -61 -10
-105 -3 -44 -8 -98 -11 -120 -2 -22 -7 -65 -9 -95 -3 -30 -7 -73 -9 -95 -3
-22 -8 -78 -11 -125 -4 -47 -8 -92 -10 -100 -2 -8 -6 -53 -10 -100 -3 -47 -9
-98 -11 -113 -4 -24 -1 -28 13 -24 417 117 666 226 973 426 213 138 476 368
633 554 23 27 47 55 52 61 45 48 275 375 275 390 0 2 20 39 45 80 25 42 45 78
45 80 0 2 24 55 54 117 52 111 132 320 155 406 l12 43 93 -93 c180 -179 413
-314 636 -367 72 -17 85 -20 125 -25 22 -3 53 -8 69 -12 55 -11 281 -4 366 11
126 22 133 24 228 56 481 161 833 574 922 1082 37 212 14 484 -56 680 -77 213
-210 421 -351 548 -99 89 -115 102 -196 154 -188 122 -337 178 -597 223 -46 8
-284 7 -335 -1 -118 -19 -168 -31 -263 -62 -226 -74 -435 -209 -589 -380 l-67
-75 -17 58 c-43 150 -172 435 -280 619 -47 79 -175 272 -188 284 -4 3 -33 39
-66 80 -233 294 -579 586 -895 758 -415 225 -784 337 -1255 382 -100 9 -427 8
-520 -1z"/>
<path d="M7871 8619 c-238 -61 -418 -248 -466 -488 -34 -168 -2 -324 97 -471
122 -181 320 -282 533 -274 125 4 165 14 275 69 152 76 295 263 325 425 41
226 -29 439 -195 593 -151 140 -371 196 -569 146z"/>
<path d="M9801 8624 c-106 -28 -146 -59 -383 -299 l-228 -230 0 -500 0 -500
55 -44 c79 -63 249 -242 319 -335 236 -315 384 -685 424 -1061 11 -107 7 -420
-6 -510 -19 -121 -21 -133 -44 -225 -22 -89 -62 -221 -78 -255 -5 -11 -21 -49
-36 -85 -123 -303 -378 -629 -658 -843 -302 -231 -686 -387 -1041 -423 -33 -3
-71 -8 -85 -10 -60 -10 -365 -2 -440 11 -14 3 -45 7 -70 11 -183 24 -479 124
-650 219 -30 17 -62 34 -70 38 -50 25 -182 116 -265 182 -194 156 -363 348
-492 560 -39 65 -118 219 -148 292 -1 2 -28 5 -61 8 -32 3 -77 7 -99 10 -22 2
-67 7 -100 10 -33 3 -80 8 -105 11 -25 2 -72 7 -105 9 -72 6 -144 13 -205 20
-25 2 -71 7 -102 10 -111 10 -173 16 -215 20 -48 6 -47 13 -13 -112 37 -133
93 -292 137 -393 26 -59 139 -283 162 -320 11 -19 24 -42 28 -50 19 -41 172
-258 250 -355 147 -183 425 -448 578 -551 22 -14 60 -41 85 -59 132 -96 435
-257 590 -314 19 -7 44 -17 55 -22 11 -5 66 -25 123 -43 56 -18 105 -36 108
-39 3 -2 -33 -43 -79 -88 -385 -382 -512 -941 -331 -1452 163 -457 559 -795
1048 -893 94 -19 333 -26 421 -13 144 22 140 21 220 44 73 21 260 100 297 126
14 11 29 19 32 19 11 0 109 72 186 137 136 113 252 262 338 435 29 58 54 114
56 124 3 11 9 31 15 47 24 61 53 193 67 302 6 42 5 265 -1 294 -2 12 -7 43
-10 68 -12 105 -74 290 -138 413 -79 154 -207 317 -325 414 -29 23 -39 38 -30
41 7 2 63 22 123 44 330 118 602 270 910 508 6 5 46 40 89 78 162 144 301 293
420 450 25 33 50 65 55 71 17 20 136 206 176 274 126 218 277 600 319 810 35
175 46 233 51 275 3 28 8 59 10 70 9 46 19 230 19 370 1 244 -17 416 -69 666
-80 393 -284 836 -540 1177 -44 59 -94 123 -110 142 -69 80 -124 138 -183 196
l-62 62 111 114 c175 179 206 222 228 326 48 228 -81 446 -304 514 -52 16
-167 17 -224 2z"/>
<path d="M12717 4644 c-1 -1 -36 -4 -77 -7 -223 -18 -441 -94 -635 -222 -87
-58 -100 -69 -210 -180 -205 -206 -330 -454 -371 -732 -3 -26 -8 -57 -10 -68
-8 -43 -4 -264 6 -325 6 -36 12 -74 14 -85 18 -111 90 -295 169 -426 242 -404
678 -648 1154 -648 619 1 1147 414 1304 1019 29 114 34 165 34 340 0 97 -6
188 -13 220 -29 123 -36 148 -59 215 -82 234 -235 448 -431 602 -110 87 -147
110 -252 161 -152 73 -309 117 -458 127 -128 10 -162 11 -165 9z"/>
<path d="M3257 4624 c-1 -1 -38 -4 -83 -8 -72 -5 -112 -11 -204 -31 -74 -15
-207 -65 -298 -112 -654 -335 -920 -1135 -594 -1792 105 -212 263 -393 464
-529 119 -81 314 -162 478 -198 88 -20 378 -28 455 -13 28 5 61 12 75 14 55
10 149 37 215 62 64 24 224 104 250 125 5 4 37 28 71 52 88 63 183 155 255
247 35 44 66 86 68 92 2 7 9 19 16 27 55 67 150 299 181 445 25 118 26 415 1
532 -59 276 -175 492 -371 689 -224 225 -526 367 -827 389 -136 10 -149 11
-152 9z"/>
</g>
</svg>
